<?xml version="1.0" encoding="UTF-8"?>
<svg width="266px" height="97px" viewBox="0 0 266 97" version="1.1" xmlns="http://www.w3.org/2000/svg" xmlns:xlink="http://www.w3.org/1999/xlink">
    <title>Group</title>
    <g id="video_assets" stroke="none" stroke-width="1" fill="none" fill-rule="evenodd">
        <g id="Splash-screen--Copy-2" transform="translate(-51.000000, -305.000000)">
            <g id="Group" transform="translate(51.000000, 305.000000)">
                <g id="logo">
                    <path d="M29.82,55.38 C33.36,52.56 35.16,48.96 35.16,44.64 L35.16,28.86 C35.22,23.94 33.48,19.68 29.82,16.14 C26.22,12.54 21.96,10.8 17.04,10.92 C12.3,11.1 8.22,12.9 4.92,16.38 C1.62,19.86 0,24 0,28.8 C0,33.78 1.8,38.1 5.34,41.7 C8.88,45.24 13.14,46.98 18.06,46.8 C23.1,46.62 27.3,44.58 30.66,40.74 L30.66,43.98 C30.66,47.16 29.4,49.92 26.94,52.2 C24.48,54.54 21.6,55.68 18.24,55.74 C15.42,55.74 12.84,54.9 10.5,53.16 C8.16,51.48 6.6,49.44 5.94,47.1 L1.5,47.1 C2.46,50.58 4.32,53.46 7.14,55.68 C10.08,58.02 13.62,59.22 17.7,59.4 C22.26,59.58 26.28,58.2 29.82,55.38 Z M17.76,42.3 C14.16,42.3 11.1,41.04 8.52,38.46 C5.94,35.88 4.62,32.82 4.56,29.16 C4.5,25.56 5.7,22.44 8.16,19.74 C10.62,17.04 13.56,15.6 17.1,15.42 C20.88,15.24 24.06,16.56 26.7,19.38 C29.4,22.2 30.66,25.44 30.54,29.22 C30.48,32.82 29.16,35.88 26.7,38.46 C24.24,41.04 21.3,42.3 17.76,42.3 Z M77.72,41.94 C81.32,38.34 83.12,34.08 83.12,29.16 C83.12,24.36 81.44,20.22 78.14,16.74 C74.84,13.2 70.76,11.4 66.02,11.22 C61.1,11.04 56.84,12.78 53.3,16.38 C49.76,19.92 47.96,24.24 47.96,29.22 C47.96,34.02 49.58,38.16 52.88,41.64 C56.18,45.12 60.26,46.92 65,47.04 C69.92,47.22 74.18,45.48 77.72,41.94 Z M65.06,42.54 C61.52,42.42 58.58,41.04 56.12,38.34 C53.66,35.64 52.52,32.46 52.58,28.86 C52.64,25.2 53.9,22.14 56.48,19.56 C59.06,16.98 62.12,15.66 65.78,15.72 C69.26,15.72 72.2,16.98 74.66,19.56 C77.12,22.14 78.44,25.2 78.56,28.8 C78.62,32.58 77.36,35.82 74.66,38.64 C72.02,41.46 68.84,42.72 65.06,42.54 Z M113.74,47.04 C118.48,46.86 122.56,45.06 125.86,41.58 C129.16,38.1 130.84,33.96 130.84,29.16 C130.84,24.18 129.04,19.92 125.44,16.32 C121.9,12.72 117.64,11.04 112.72,11.22 C107.68,11.4 103.48,13.38 100.12,17.28 L100.12,0 L95.62,0 L95.62,29.1 C95.5,34.02 97.24,38.28 100.9,41.88 C104.56,45.48 108.82,47.22 113.74,47.04 Z M104.08,38.64 C101.38,35.82 100.12,32.52 100.24,28.74 C100.3,25.14 101.62,22.08 104.08,19.5 C106.54,16.92 109.54,15.66 113.02,15.66 C116.68,15.66 119.74,16.98 122.26,19.56 C124.84,22.14 126.16,25.2 126.22,28.8 C126.28,32.46 125.08,35.58 122.62,38.28 C120.16,40.98 117.22,42.36 113.68,42.54 C109.96,42.72 106.78,41.4 104.08,38.64 Z M172.56,41.94 C176.16,38.34 177.96,34.08 177.96,29.16 C177.96,24.36 176.28,20.22 172.98,16.74 C169.68,13.2 165.6,11.4 160.86,11.22 C155.94,11.04 151.68,12.78 148.14,16.38 C144.6,19.92 142.8,24.24 142.8,29.22 C142.8,34.02 144.42,38.16 147.72,41.64 C151.02,45.12 155.1,46.92 159.84,47.04 C164.76,47.22 169.02,45.48 172.56,41.94 Z M159.9,42.54 C156.36,42.42 153.42,41.04 150.96,38.34 C148.5,35.64 147.36,32.46 147.42,28.86 C147.48,25.2 148.74,22.14 151.32,19.56 C153.9,16.98 156.96,15.66 160.62,15.72 C164.1,15.72 167.04,16.98 169.5,19.56 C171.96,22.14 173.28,25.2 173.4,28.8 C173.46,32.58 172.2,35.82 169.5,38.64 C166.86,41.46 163.68,42.72 159.9,42.54 Z M195.08,46.26 L195.08,26.28 C195.08,23.4 196.1,20.94 198.2,18.84 C200.3,16.74 202.82,15.72 205.64,15.72 C208.46,15.72 210.86,16.74 212.96,18.84 C215.06,20.94 216.14,23.4 216.14,26.28 L216.14,46.26 L220.76,46.26 L220.76,26.76 C220.76,22.32 219.32,18.66 216.44,15.72 C213.56,12.78 209.96,11.28 205.64,11.28 C201.26,11.28 197.66,12.78 194.78,15.72 C191.9,18.66 190.46,22.32 190.46,26.76 L190.46,46.26 L195.08,46.26 Z M246.4,58.2 L265.78,12.06 L260.98,12.06 L249.46,39.18 L238.54,12.06 L233.56,12.06 L246.64,45.18 L241.48,58.2 L246.4,58.2 Z" id="gobony" fill="#EE750F" fill-rule="nonzero"></path>
                    <g id="Group-2" transform="translate(0.000000, 68.000000)" fill="#F9D5B7">
                        <rect id="Rectangle" x="0" y="0" width="265.78" height="29" rx="6"></rect>
                    </g>
                </g>
                <path d="M28.602,89.217 C31.29,89.217 32.676,87.537 32.676,85.416 C32.676,83.673 31.5,82.224 29.988,81.993 C31.311,81.72 32.403,80.523 32.403,78.78 C32.403,76.911 31.038,75.21 28.371,75.21 L21,75.21 L21,89.217 L28.602,89.217 Z M27.72,80.775 L23.982,80.775 L23.982,77.835 L27.72,77.835 C28.728,77.835 29.358,78.444 29.358,79.305 C29.358,80.208 28.728,80.775 27.72,80.775 Z M27.846,86.592 L23.982,86.592 L23.982,83.4 L27.846,83.4 C29.001,83.4 29.631,84.114 29.631,84.996 C29.631,86.004 28.959,86.592 27.846,86.592 Z M59.244,89.469 C63.507,89.469 65.565,87.075 65.565,83.61 L65.565,75.21 L62.52,75.21 L62.52,83.526 C62.52,85.479 61.407,86.823 59.244,86.823 C57.081,86.823 55.947,85.479 55.947,83.526 L55.947,75.21 L52.923,75.21 L52.923,83.61 C52.923,87.075 54.981,89.469 59.244,89.469 Z M91.335,89.469 C95.094,89.469 96.942,87.537 96.942,84.975 C96.942,79.746 88.899,81.237 88.899,79.032 C88.899,78.192 89.613,77.646 90.873,77.646 C92.301,77.646 93.813,78.129 94.947,79.179 L96.606,76.953 C95.22,75.672 93.372,75 91.146,75 C87.849,75 85.833,76.932 85.833,79.263 C85.833,84.534 93.897,82.833 93.897,85.269 C93.897,86.088 93.12,86.823 91.461,86.823 C89.529,86.823 87.996,85.941 87.009,84.912 L85.371,87.243 C86.694,88.566 88.626,89.469 91.335,89.469 Z M119.919,89.217 L119.919,75.21 L116.937,75.21 L116.937,89.217 L119.919,89.217 Z M143.673,89.217 L143.673,80.082 L150.351,89.217 L153.228,89.217 L153.228,75.21 L150.246,75.21 L150.246,84.009 L143.757,75.21 L140.691,75.21 L140.691,89.217 L143.673,89.217 Z M183.912,89.217 L183.912,86.592 L176.982,86.592 L176.982,83.4 L183.765,83.4 L183.765,80.775 L176.982,80.775 L176.982,77.835 L183.912,77.835 L183.912,75.21 L174,75.21 L174,89.217 L183.912,89.217 Z M209.241,89.469 C213,89.469 214.848,87.537 214.848,84.975 C214.848,79.746 206.805,81.237 206.805,79.032 C206.805,78.192 207.519,77.646 208.779,77.646 C210.207,77.646 211.719,78.129 212.853,79.179 L214.512,76.953 C213.126,75.672 211.278,75 209.052,75 C205.755,75 203.739,76.932 203.739,79.263 C203.739,84.534 211.803,82.833 211.803,85.269 C211.803,86.088 211.026,86.823 209.367,86.823 C207.435,86.823 205.902,85.941 204.915,84.912 L203.277,87.243 C204.6,88.566 206.532,89.469 209.241,89.469 Z M239.841,89.469 C243.6,89.469 245.448,87.537 245.448,84.975 C245.448,79.746 237.405,81.237 237.405,79.032 C237.405,78.192 238.119,77.646 239.379,77.646 C240.807,77.646 242.319,78.129 243.453,79.179 L245.112,76.953 C243.726,75.672 241.878,75 239.652,75 C236.355,75 234.339,76.932 234.339,79.263 C234.339,84.534 242.403,82.833 242.403,85.269 C242.403,86.088 241.626,86.823 239.967,86.823 C238.035,86.823 236.502,85.941 235.515,84.912 L233.877,87.243 C235.2,88.566 237.132,89.469 239.841,89.469 Z" id="BUSINESS" fill="#1E1637" fill-rule="nonzero"></path>
            </g>
        </g>
    </g>
</svg>